@startuml
hide empty members

package builtins {
  interface builtins.INamed {
    name: String
  }
}

class Concept #LightGreen extends FeaturesContainer {
  abstract: Boolean
  partition: Boolean
}

class ConceptInterface #LightGreen extends FeaturesContainer

class Containment #LightBlue extends Link

abstract class DataType #LightPink extends LanguageElement

class Enumeration #LightPink extends DataType implements NamespaceProvider

class EnumerationLiteral #LightPink implements NamespacedEntity

abstract class Feature #LightBlue implements NamespacedEntity {
  optional: Boolean
}

abstract class FeaturesContainer #LightGreen extends LanguageElement implements NamespaceProvider {
}

abstract class Link #LightBlue extends Feature {
  multiple: Boolean
}

class Language <<partition>> implements NamespaceProvider, builtins.INamed {
  key: Id
  version: Integer
}

abstract class LanguageElement implements NamespacedEntity

interface NamespacedEntity extends builtins.INamed {
  key: Id
}

interface NamespaceProvider {
}

class PrimitiveType #LightPink extends DataType

class Property #LightBlue extends Feature

class Reference #LightBlue extends Link

' relations:

Concept "*" -> "0..1" Concept: extends
Concept "*" --> "*" ConceptInterface: implements

ConceptInterface "*" --> "*" ConceptInterface: extends

EnumerationLiteral "*" -* "1" Enumeration : literals

Feature "*" -* "1" FeaturesContainer: features

Link "*" --> "1" FeaturesContainer: type

Language "*" --> "*" Language: dependsOn
LanguageElement "*" -* "1" Language: elements

Property "*" -> "1" DataType: type

legend
  <#LightGray,#LightGray>| <#LightBlue>Feature |
  | <#LightGreen>Feature Container |
  | <#LightPink>DataType |
end legend
@enduml
