@startuml
title Typed Nodes

hide empty members

package meta {
    class Concept

    Concept <-- Link: type
    abstract class Link

    Link <|-- Containment

    class Containment
    Containment -[hidden]-> Reference

    Link <|-- Reference

    class Reference

    abstract class DataType

    DataType <- Property: type

    class Property
    Reference -[hidden]-> Property
}

meta -[hidden]> TypedNode

'Node

class TypedNode<T: Concept> #lightGreen {
'    getLowlevel(): lowlevel:Node
}

TypedNode -> "0..1" TypedNode: parent
Concept "1" <- TypedNode: concept

'Children

TypedNode *--> "0..*" TypedChild: children

class TypedChild<T: Concept> #lightBlue {
'    getLowlevel(): lowlevel:ChildTarget
}

TypedChild -> "1" TypedNode: target\n<i>T = containment.type</i>
Containment "1" <- TypedChild: containment

'References

TypedNode *--> "0..*" TypedReference: references

TypedChild -[hidden]-> TypedReference

class TypedReference<T: Concept> #lightSkyBlue {
'    getLowlevel(): lowlevel:ReferenceTarget
}

TypedReference -> "1" TypedNode: target\n<i>T = reference.type</i>
Reference "1" <- TypedReference: reference

'Properties

TypedNode *--> "0..*" TypedProperty: properties
class TypedProperty<T: DataType> #lightPink {
    value: T
'    getLowlevel(): lowlevel:PropertyValue
}

Property "1" <- TypedProperty: property

@enduml